Coordinates
version=1
nRows=37
nColumns=38
inDegrees=no

Units are S.I. units (second, meters, Newtons, ...)
If the header above contains a line with 'inDegrees', this indicates whether rotational values are in degrees (yes) or radians (no).

endheader
time	pelvis_tilt	pelvis_list	pelvis_rotation	pelvis_tx	pelvis_ty	pelvis_tz	hip_flexion_r	hip_adduction_r	hip_rotation_r	knee_angle_r	ankle_angle_r	subtalar_angle_r	mtp_angle_r	hip_flexion_l	hip_adduction_l	hip_rotation_l	knee_angle_l	ankle_angle_l	subtalar_angle_l	mtp_angle_l	lumbar_extension	lumbar_bending	lumbar_rotation	arm_flex_r	arm_add_r	arm_rot_r	elbow_flex_r	pro_sup_r	wrist_flex_r	wrist_dev_r	arm_flex_l	arm_add_l	arm_rot_l	elbow_flex_l	pro_sup_l	wrist_flex_l	wrist_dev_l
1.86	1.47004	1.50286	-2.9775	0.769194	1.00837	0.946525	-0.239662	-0.05406	-0.0838164	0.0619226	0.166888	0	0	0.268988	0.0618764	-0.192877	0.110605	-0.00978503	0	0	-0.0468634	-0.0450355	0.295298	0.553182	0.0428763	0.336253	0.747928	1.5708	0	0	-0.205908	-0.117436	-0.14345	0.398248	1.36955	0	0
1.87	1.46509	1.49875	-2.97779	0.771638	0.999631	0.945329	-0.246086	-0.062348	-0.0843564	0.0715181	0.176756	0	0	0.26131	0.0671201	-0.198089	0.114298	-0.0205533	0	0	-0.0423193	-0.050566	0.3056	0.544118	0.0451468	0.332256	0.755212	1.5708	0	0	-0.212696	-0.120493	-0.137533	0.405109	1.3683	0	0
1.88	1.44438	1.49205	-2.96101	0.774296	0.991022	0.944553	-0.253849	-0.0733417	-0.0873276	0.0824066	0.18608	0	0	0.25077	0.0751326	-0.205392	0.11329	-0.0436429	0	0	-0.0403301	-0.0588919	0.314261	0.534869	0.047584	0.327512	0.763128	1.5708	0	0	-0.219057	-0.124473	-0.128943	0.413323	1.36406	0	0
1.89	1.43088	1.48404	-2.94842	0.777198	0.982754	0.944253	-0.260755	-0.0852903	-0.0926714	0.0946665	0.192526	0	0	0.242901	0.0840916	-0.211752	0.117616	-0.0624682	0	0	-0.0391529	-0.0690787	0.319276	0.526278	0.0503919	0.324635	0.768774	1.5708	0	0	-0.222437	-0.127919	-0.126752	0.416892	1.35997	0	0
1.9	1.42756	1.47489	-2.94452	0.780199	0.974888	0.944429	-0.264368	-0.0987059	-0.100442	0.111478	0.197854	0	0	0.238139	0.0936744	-0.217104	0.128319	-0.0702273	0	0	-0.0386157	-0.0810104	0.322744	0.517677	0.0532551	0.321978	0.774314	1.5708	0	0	-0.223322	-0.131324	-0.126002	0.417993	1.35347	0	0
1.91	1.43096	1.46683	-2.94514	0.783343	0.967194	0.94491	-0.2652	-0.111099	-0.111009	0.131902	0.201483	0	0	0.236585	0.102105	-0.220491	0.145098	-0.0669188	0	0	-0.03752	-0.0918047	0.323637	0.508745	0.0560509	0.321379	0.779091	1.5708	0	0	-0.223226	-0.134348	-0.123028	0.416712	1.34828	0	0
1.92	1.44356	1.46123	-2.95338	0.786556	0.95961	0.94556	-0.262536	-0.121271	-0.122489	0.155768	0.203169	0	0	0.237589	0.108445	-0.220442	0.165047	-0.056259	0	0	-0.0348173	-0.0998409	0.322818	0.498758	0.0582806	0.323076	0.783935	1.5708	0	0	-0.222834	-0.136926	-0.118247	0.413796	1.34602	0	0
1.93	1.46839	1.45833	-2.97281	0.789881	0.952127	0.946291	-0.25573	-0.129289	-0.133396	0.183102	0.202858	0	0	0.240854	0.113009	-0.217735	0.185682	-0.0443955	0	0	-0.0300153	-0.104696	0.321204	0.487163	0.0591754	0.327062	0.790257	1.5708	0	0	-0.222346	-0.138782	-0.116685	0.410113	1.34271	0	0
1.94	1.51499	1.45799	-3.01318	0.793382	0.944787	0.946946	-0.242761	-0.135754	-0.144389	0.215674	0.201782	0	0	0.247027	0.116314	-0.213682	0.204777	-0.0350454	0	0	-0.0219035	-0.106538	0.319321	0.47364	0.0579087	0.333756	0.799534	1.5708	0	0	-0.222312	-0.139957	-0.114896	0.406278	1.33807	0	0
1.95	1.56564	1.45913	-3.05758	0.79695	0.937523	0.947635	-0.227704	-0.140864	-0.152352	0.250076	0.198234	0	0	0.250887	0.119463	-0.207579	0.216707	-0.0307232	0	0	-0.0128731	-0.106281	0.318131	0.458858	0.0549619	0.341644	0.811091	1.5708	0	0	-0.226521	-0.143994	-0.0872229	0.412708	1.28008	0	0
1.96	1.62113	1.46047	-3.10728	0.800595	0.930375	0.948311	-0.210082	-0.146327	-0.158378	0.287721	0.193578	0	0	0.251806	0.123435	-0.200949	0.221369	-0.0288829	0	0	-0.00382024	-0.105406	0.316184	0.443825	0.0511172	0.353203	0.824858	1.5708	0	0	-0.228391	-0.143094	-0.0918005	0.412178	1.30499	0	0
1.97	1.66769	1.46163	3.13422	0.804153	0.923331	0.949062	-0.192937	-0.151651	-0.160092	0.325386	0.186283	0	0	0.247951	0.128038	-0.195239	0.218755	-0.0300669	0	0	0.00371361	-0.104293	0.314803	0.429025	0.0471224	0.365178	0.839104	1.5708	0	0	-0.232056	-0.143421	-0.0874347	0.4173	1.29815	0	0
1.98	1.70816	1.46268	3.09774	0.807557	0.916433	0.949825	-0.175191	-0.156979	-0.159146	0.364327	0.177101	0	0	0.240428	0.133073	-0.189544	0.210278	-0.0338829	0	0	0.00999059	-0.10332	0.313894	0.4147	0.0436456	0.376148	0.853207	1.5708	0	0	-0.235703	-0.143477	-0.083493	0.423481	1.2943	0	0
1.99	1.74289	1.46353	3.06634	0.810832	0.909708	0.950554	-0.156733	-0.162585	-0.156844	0.40469	0.165834	0	0	0.230547	0.138398	-0.183879	0.198302	-0.0396246	0	0	0.0150036	-0.102652	0.313124	0.401094	0.0404756	0.38569	0.867147	1.5708	0	0	-0.239347	-0.143441	-0.0822984	0.431098	1.28912	0	0
2	1.76304	1.46362	3.05021	0.814285	0.902964	0.951293	-0.139951	-0.169387	-0.156065	0.44477	0.152794	0	0	0.218306	0.144763	-0.178031	0.185606	-0.0454815	0	0	0.0182603	-0.102747	0.310874	0.387649	0.0374795	0.394507	0.881169	1.5708	0	0	-0.243469	-0.143347	-0.0831006	0.439682	1.28378	0	0
2.01	1.79268	1.4645	3.02285	0.817211	0.896593	0.951818	-0.119678	-0.174487	-0.151285	0.486811	0.139058	0	0	0.209053	0.148415	-0.17411	0.176194	-0.048557	0	0	0.0216363	-0.102508	0.309629	0.37516	0.0354625	0.401244	0.894577	1.5708	0	0	-0.247245	-0.143732	-0.0823445	0.448942	1.28089	0	0
2.02	1.81823	1.46499	2.99935	0.820034	0.890423	0.952262	-0.0990019	-0.179928	-0.146516	0.529438	0.125224	0	0	0.200671	0.151702	-0.169903	0.169341	-0.048405	0	0	0.0239631	-0.102871	0.307748	0.363316	0.033945	0.406057	0.907853	1.5708	0	0	-0.250841	-0.144159	-0.0853691	0.459096	1.27761	0	0
2.03	1.84136	1.46504	2.97833	0.822796	0.884431	0.952607	-0.0779609	-0.18592	-0.142344	0.572521	0.111008	0	0	0.193278	0.154995	-0.164712	0.164515	-0.0461846	0	0	0.0257428	-0.103906	0.304977	0.351972	0.0330171	0.409543	0.920515	1.5708	0	0	-0.254612	-0.144822	-0.0865219	0.469589	1.27868	0	0
2.04	1.86181	1.46487	2.96193	0.825625	0.87858	0.952902	-0.0579643	-0.192063	-0.141225	0.614375	0.0958335	0	0	0.186042	0.158622	-0.155112	0.160481	-0.0436466	0	0	0.0268406	-0.10546	0.298978	0.341404	0.0329765	0.413262	0.932052	1.5708	0	0	-0.258127	-0.145515	-0.0854123	0.478298	1.28307	0	0
2.05	1.81476	1.47102	3.05193	0.835639	0.874078	0.954154	-0.0644942	-0.200244	-0.192697	0.641954	0.074879	0	0	0.170934	0.171409	-0.0966365	0.161459	-0.0446427	0	0	0.014839	-0.0937125	0.253525	0.330618	0.0193491	0.421672	0.952618	1.5708	0	0	-0.257576	-0.133983	-0.0804503	0.477822	1.28699	0	0
2.06	1.82993	1.47005	3.03816	0.838168	0.868411	0.954419	-0.0446868	-0.207989	-0.18825	0.682134	0.0593253	0	0	0.162956	0.174531	-0.0923489	0.157225	-0.0406874	0	0	0.0154905	-0.0962026	0.248682	0.320903	0.0202901	0.423457	0.962358	1.5708	0	0	-0.260984	-0.135005	-0.0788559	0.48623	1.28537	0	0
2.07	1.90555	1.46219	2.92289	0.833258	0.861642	0.95365	0.00249138	-0.211362	-0.127856	0.734462	0.0486813	0	0	0.162854	0.168645	-0.141416	0.147805	-0.0318965	0	0	0.0291765	-0.112086	0.283932	0.312597	0.0358099	0.419655	0.960988	1.5708	0	0	-0.267254	-0.147603	-0.0839838	0.500405	1.288	0	0
2.08	1.92125	1.46036	2.90516	0.835453	0.856119	0.953812	0.0239066	-0.21807	-0.119622	0.772495	0.0333402	0	0	0.154044	0.172255	-0.143156	0.140179	-0.0285967	0	0	0.0310909	-0.115023	0.282891	0.301483	0.0367516	0.417394	0.972779	1.5708	0	0	-0.270403	-0.149677	-0.0772972	0.509295	1.28262	0	0
2.09	1.93054	1.46018	2.89773	0.83793	0.850712	0.954117	0.0409733	-0.223126	-0.117484	0.805797	0.0187802	0	0	0.143506	0.175299	-0.139043	0.131658	-0.026301	0	0	0.0314216	-0.116263	0.276726	0.291424	0.0364751	0.419863	0.983753	1.5708	0	0	-0.270877	-0.149882	-0.0743941	0.510596	1.28674	0	0
2.1	1.93896	1.46048	2.89204	0.840489	0.845382	0.954464	0.056227	-0.22776	-0.117439	0.835673	0.00666731	0	0	0.132062	0.17824	-0.133868	0.121626	-0.0251039	0	0	0.0315155	-0.116852	0.269722	0.280575	0.0349362	0.4241	0.995821	1.5708	0	0	-0.270582	-0.150095	-0.0715497	0.510138	1.28879	0	0
2.11	1.94751	1.46167	2.88927	0.843277	0.840131	0.954885	0.0683365	-0.231811	-0.12253	0.860682	-0.00396585	0	0	0.119956	0.180743	-0.123742	0.111161	-0.0246417	0	0	0.0311588	-0.116461	0.25968	0.268722	0.03213	0.430217	1.00898	1.5708	0	0	-0.268893	-0.149777	-0.0703064	0.506388	1.28916	0	0
2.12	1.87179	1.47098	3.01145	0.853492	0.836151	0.956669	0.0462786	-0.243202	-0.184376	0.866894	-0.0180365	0	0	0.0961009	0.188717	-0.0652692	0.105638	-0.0281193	0	0	0.0146647	-0.101747	0.210507	0.254709	0.0130153	0.439544	1.03482	1.5708	0	0	-0.261166	-0.136977	-0.0661557	0.492939	1.2876	0	0
2.13	1.87175	1.47293	3.01632	0.856065	0.831024	0.957229	0.0550655	-0.246525	-0.189464	0.885271	-0.0234094	0	0	0.0835855	0.189011	-0.0595704	0.0964022	-0.0264963	0	0	0.0136262	-0.10071	0.202369	0.240512	0.00865438	0.444177	1.04905	1.5708	0	0	-0.258757	-0.1368	-0.0666295	0.489821	1.29068	0	0
2.14	1.97955	1.46632	2.86568	0.850299	0.82464	0.956217	0.102485	-0.239122	-0.128886	0.918785	-0.0170593	0	0	0.0852007	0.183077	-0.111164	0.0807886	-0.0209692	0	0	0.0321201	-0.114171	0.244546	0.222025	0.0199297	0.434852	1.05645	1.5708	0	0	-0.261399	-0.152451	-0.0550366	0.498484	1.28084	0	0
2.15	1.97467	1.46973	2.8778	0.85289	0.819666	0.956933	0.10658	-0.240128	-0.137866	0.929141	-0.0132334	0	0	0.0699322	0.182708	-0.0972039	0.068334	-0.0220808	0	0	0.0293916	-0.112117	0.235183	0.205259	0.0160828	0.43109	1.07378	1.5708	0	0	-0.257251	-0.152763	-0.0503233	0.493387	1.2816	0	0
2.16	1.71634	1.46745	-3.10361	0.862286	0.815298	0.961512	0.0577495	-0.265591	-0.201611	0.914503	-0.0155169	0	0	0.0217327	0.200553	-0.0433035	0.051404	-0.0378528	0	0	-0.00569192	-0.113707	0.190559	0.190697	0.00398928	0.424712	1.09431	1.5708	0	0	-0.245011	-0.144545	-0.0417684	0.480569	1.28048	0	0
2.17	1.87471	1.48411	3.03453	0.866116	0.81147	0.959488	0.0796059	-0.252051	-0.213601	0.926658	-0.0067103	0	0	0.0333072	0.185183	-0.0295783	0.0570676	-0.0221457	0	0	0.0097488	-0.0920588	0.175477	0.172668	-0.00578684	0.424105	1.11931	1.5708	0	0	-0.247449	-0.13969	-0.0374872	0.482542	1.27645	0	0
2.18	1.87119	1.48745	3.04317	0.868499	0.806756	0.959941	0.0835512	-0.251942	-0.219407	0.93004	-0.00160171	0	0	0.0205005	0.183414	-0.0226605	0.0468785	-0.0209939	0	0	0.0088619	-0.0886907	0.167695	0.159111	-0.00745345	0.422529	1.13279	1.5708	0	0	-0.247382	-0.139922	-0.0327089	0.485273	1.27209	0	0
2.19	1.86715	1.49052	3.05217	0.870818	0.802125	0.960332	0.087327	-0.25201	-0.224857	0.931775	0.00208412	0	0	0.00793884	0.181698	-0.0157296	0.0370515	-0.0195648	0	0	0.00820498	-0.0854397	0.159358	0.147015	-0.00850957	0.424508	1.14379	1.5708	0	0	-0.248715	-0.140144	-0.0297049	0.490276	1.26621	0	0
2.2	1.8615	1.49512	3.05859	0.873826	0.797347	0.960572	0.0910602	-0.263359	-0.231991	0.931272	0.0119618	0	0	-0.00381522	0.181468	-0.00488505	0.0300129	-0.0195599	0	0	0.00860484	-0.0785634	0.152989	0.135515	-0.00903323	0.429203	1.15228	1.5708	0	0	-0.252002	-0.138171	-0.028317	0.496496	1.25964	0	0
2.21	1.87233	1.49547	3.05414	0.874919	0.793222	0.960802	0.0978876	-0.252594	-0.231249	0.932889	0.0056166	0	0	-0.0136405	0.178305	-0.00545482	0.0208911	-0.0137914	0	0	0.00873538	-0.080396	0.143315	0.126258	-0.00827999	0.432216	1.15867	1.5708	0	0	-0.253345	-0.140512	-0.0278675	0.502675	1.2527	0	0
2.22	1.8642	1.49732	3.06496	0.876836	0.788949	0.960971	0.102742	-0.253797	-0.233451	0.932263	0.00681782	0	0	-0.0245965	0.177103	-0.000921189	0.0133627	-0.0106079	0	0	0.00792853	-0.0787303	0.135294	0.117163	-0.00782577	0.434366	1.16573	1.5708	0	0	-0.255287	-0.13941	-0.0334714	0.50568	1.26773	0	0
